<svg width="11" height="11" viewBox="0 0 11 11" fill="none" xmlns="http://www.w3.org/2000/svg">
<rect x="3" y="3" width="5" height="5" fill="black"/>
<rect x="1" y="5" width="2" height="1" fill="black"/>
<rect x="6" y="1" width="2" height="1" transform="rotate(90 6 1)" fill="black"/>
<rect x="3" y="2" width="1" height="1" transform="rotate(90 3 2)" fill="black"/>
<rect x="9" y="8" width="1" height="1" transform="rotate(90 9 8)" fill="black"/>
<rect x="9" y="2" width="1" height="1" transform="rotate(90 9 2)" fill="black"/>
<rect x="3" y="8" width="1" height="1" transform="rotate(90 3 8)" fill="black"/>
<rect x="6" y="8" width="2" height="1" transform="rotate(90 6 8)" fill="black"/>
<rect x="8" y="5" width="2" height="1" fill="black"/>
<rect y="5" width="1" height="1" fill="#757575"/>
<rect x="10" y="5" width="1" height="1" fill="#757575"/>
<rect x="8" y="6" width="1" height="1" fill="#757575"/>
<rect x="8" y="4" width="1" height="1" fill="#757575"/>
<rect x="6" y="2" width="1" height="1" fill="#757575"/>
<rect x="5" width="1" height="1" fill="#757575"/>
<rect x="4" y="2" width="1" height="1" fill="#757575"/>
<rect x="5" y="10" width="1" height="1" fill="#757575"/>
<rect x="6" y="8" width="1" height="1" fill="#757575"/>
<rect x="4" y="8" width="1" height="1" fill="#757575"/>
<rect x="2" y="6" width="1" height="1" fill="#757575"/>
<rect x="2" y="4" width="1" height="1" fill="#757575"/>
<rect x="4" y="4" width="1" height="1" fill="white"/>
</svg>
