<svg width="10" height="10" viewBox="0 0 10 10" fill="none" xmlns="http://www.w3.org/2000/svg">
<path d="M1 2.5H2.5M3 2.5H2.5M2.5 2.5V3.5M2.5 4V3.5M2.5 3.5H3.5M4 3.5H3.5M3.5 3.5V4.5M3.5 5V4.5M3.5 4.5H4.5M5 4.5H4.5M4.5 4.5V5.5V6.5M4.5 7V6.5M4.5 6.5H3.5M3 6.5H3.5M3.5 6.5V7.5M3.5 8V7.5M3.5 7.5H2.5M2 7.5H2.5M2.5 7.5V8.5M2.5 9V8.5M2.5 8.5H1" stroke="black"/>
<path d="M9 8.5L7.5 8.5M7 8.5L7.5 8.5M7.5 8.5L7.5 7.5M7.5 7L7.5 7.5M7.5 7.5L6.5 7.5M6 7.5L6.5 7.5M6.5 7.5L6.5 6.5M6.5 6L6.5 6.5M6.5 6.5L5.5 6.5M5 6.5L5.5 6.5M5.5 6.5L5.5 5.5L5.5 4.5M5.5 4L5.5 4.5M5.5 4.5L6.5 4.5M7 4.5L6.5 4.5M6.5 4.5L6.5 3.5M6.5 3L6.5 3.5M6.5 3.5L7.5 3.5M8 3.5L7.5 3.5M7.5 3.5L7.5 2.5M7.5 2L7.5 2.5M7.5 2.5L9 2.5" stroke="black"/>
</svg>
