<svg width="17" height="17" viewBox="0 0 17 17" fill="none" xmlns="http://www.w3.org/2000/svg">
<rect x="1" y="6" width="15" height="5" fill="#FFFF3B"/>
<rect x="2" y="4" width="13" height="2" fill="#FFFF3B"/>
<rect x="4" y="2" width="9" height="1" fill="#FFFF3B"/>
<rect x="3" y="3" width="11" height="1" fill="#FFFF3B"/>
<rect x="2" y="11" width="13" height="2" fill="#FFFF3B"/>
<rect x="6" y="1" width="5" height="1" fill="#FFFF3B"/>
<rect x="13" y="15" width="9" height="1" transform="rotate(-180 13 15)" fill="#FFFF3B"/>
<rect x="14" y="14" width="11" height="1" transform="rotate(-180 14 14)" fill="#FFFF3B"/>
<rect x="11" y="16" width="5" height="1" transform="rotate(-180 11 16)" fill="#FFFF3B"/>
<rect x="6" width="5" height="1" fill="black"/>
<rect x="1" y="6" width="5" height="1" transform="rotate(90 1 6)" fill="black"/>
<rect x="2" y="4" width="2" height="1" transform="rotate(90 2 4)" fill="black"/>
<rect x="2" y="11" width="2" height="1" transform="rotate(90 2 11)" fill="black"/>
<rect x="16" y="11" width="2" height="1" transform="rotate(90 16 11)" fill="black"/>
<rect x="16" y="4" width="2" height="1" transform="rotate(90 16 4)" fill="black"/>
<rect x="11" y="1" width="2" height="1" fill="black"/>
<rect x="4" y="15" width="2" height="1" fill="black"/>
<rect x="11" y="15" width="2" height="1" fill="black"/>
<rect x="4" y="1" width="2" height="1" fill="black"/>
<rect x="17" y="6" width="5" height="1" transform="rotate(90 17 6)" fill="black"/>
<rect x="6" width="5" height="1" fill="black"/>
<rect x="6" y="16" width="5" height="1" fill="black"/>
<rect x="6" y="10" width="5" height="1" fill="black"/>
<rect x="2" y="13" width="1" height="1" fill="black"/>
<rect x="3" y="14" width="1" height="1" fill="black"/>
<rect x="14" y="3" width="1" height="1" fill="black"/>
<rect x="6" y="4" width="1" height="1" fill="black"/>
<rect x="4" y="4" width="1" height="1" fill="black"/>
<rect x="6" y="6" width="1" height="1" fill="black"/>
<rect x="4" y="6" width="1" height="1" fill="black"/>
<rect x="5" y="5" width="1" height="1" fill="black"/>
<rect x="12" y="4" width="1" height="1" fill="black"/>
<rect x="10" y="4" width="1" height="1" fill="black"/>
<rect x="12" y="6" width="1" height="1" fill="black"/>
<rect x="10" y="6" width="1" height="1" fill="black"/>
<rect x="11" y="5" width="1" height="1" fill="black"/>
<rect x="14" y="13" width="1" height="1" fill="black"/>
<rect x="13" y="14" width="1" height="1" fill="black"/>
<rect x="12" y="12" width="1" height="1" fill="black"/>
<rect x="11" y="11" width="1" height="1" fill="black"/>
<rect x="13" y="2" width="1" height="1" fill="black"/>
<rect x="3" y="2" width="1" height="1" fill="black"/>
<rect x="2" y="3" width="1" height="1" fill="black"/>
<rect x="5" y="11" width="1" height="1" fill="black"/>
<rect x="4" y="12" width="1" height="1" fill="black"/>
</svg>
