<svg width="17" height="17" viewBox="0 0 17 17" fill="none" xmlns="http://www.w3.org/2000/svg">
<path d="M1 11V6H2V4H3V3H4V2H6V1H11V2H13V3H14V4H15V6H16V11H15V13H14V14H13V15H11V16H6V15H4V14H3V13H2V11H1Z" fill="#FFFF3B"/>
<rect x="6" width="5" height="1" fill="black"/>
<rect y="6" width="1" height="5" fill="black"/>
<rect x="1" y="4" width="1" height="2" fill="black"/>
<rect width="1" height="1" transform="matrix(-1 0 0 1 3 3)" fill="black"/>
<rect width="2" height="1" transform="matrix(-1 0 0 1 6 15)" fill="black"/>
<rect width="1" height="1" transform="matrix(-1 0 0 1 13 10)" fill="black"/>
<rect width="1" height="1" transform="matrix(-1 0 0 1 12 11)" fill="black"/>
<rect width="1" height="1" transform="matrix(-1 0 0 1 6 11)" fill="black"/>
<rect width="1" height="1" transform="matrix(-1 0 0 1 5 10)" fill="black"/>
<rect width="5" height="1" transform="matrix(-1 0 0 1 11 12)" fill="black"/>
<rect width="2" height="2" transform="matrix(-1 0 0 1 12 5)" fill="black"/>
<rect width="2" height="2" transform="matrix(-1 0 0 1 7 5)" fill="black"/>
<rect width="1" height="1" transform="matrix(-1 0 0 1 14 14)" fill="black"/>
<rect width="2" height="1" transform="matrix(-1 0 0 1 13 15)" fill="black"/>
<rect width="1" height="1" transform="matrix(-1 0 0 1 4 14)" fill="black"/>
<rect width="1" height="1" transform="matrix(-1 0 0 1 3 13)" fill="black"/>
<rect width="1" height="1" transform="matrix(-1 0 0 1 15 13)" fill="black"/>
<rect width="1" height="1" transform="matrix(-1 0 0 1 14 2)" fill="black"/>
<rect width="1" height="1" transform="matrix(-1 0 0 1 13 1)" fill="black"/>
<rect width="1" height="1" transform="matrix(-1 0 0 1 12 1)" fill="black"/>
<rect width="1" height="1" transform="matrix(-1 0 0 1 6 1)" fill="black"/>
<rect width="1" height="1" transform="matrix(-1 0 0 1 5 1)" fill="black"/>
<rect width="1" height="1" transform="matrix(-1 0 0 1 4 2)" fill="black"/>
<rect width="1" height="1" transform="matrix(-1 0 0 1 15 3)" fill="black"/>
<rect x="15" y="11" width="1" height="2" fill="black"/>
<rect x="15" y="4" width="1" height="2" fill="black"/>
<rect x="1" y="11" width="1" height="2" fill="black"/>
<rect x="16" y="6" width="1" height="5" fill="black"/>
<rect x="6" y="16" width="5" height="1" fill="black"/>
</svg>
