<svg width="11" height="21" viewBox="0 0 11 21" fill="none" xmlns="http://www.w3.org/2000/svg">
<rect x="5" y="3" width="1" height="1" transform="rotate(-180 5 3)" fill="#740407"/>
<rect x="4" y="2" width="1" height="1" transform="rotate(-180 4 2)" fill="#740407"/>
<rect x="3" y="1" width="1" height="1" transform="rotate(-180 3 1)" fill="#740407"/>
<rect x="7" y="3" width="1" height="1" transform="rotate(-180 7 3)" fill="#740407"/>
<rect x="6" y="2" width="1" height="1" transform="rotate(-180 6 2)" fill="#740407"/>
<rect x="5" y="1" width="1" height="1" transform="rotate(-180 5 1)" fill="#740407"/>
<rect x="8" y="2" width="1" height="1" transform="rotate(-180 8 2)" fill="#740407"/>
<rect x="7" y="1" width="1" height="1" transform="rotate(-180 7 1)" fill="#740407"/>
<rect x="9" y="1" width="1" height="1" transform="rotate(-180 9 1)" fill="#740407"/>
<rect x="6" y="18" width="1" height="1" fill="#740407"/>
<rect x="7" y="19" width="1" height="1" fill="#740407"/>
<rect x="8" y="20" width="1" height="1" fill="#740407"/>
<rect x="4" y="18" width="1" height="1" fill="#740407"/>
<rect x="5" y="19" width="1" height="1" fill="#740407"/>
<rect x="6" y="20" width="1" height="1" fill="#740407"/>
<rect x="3" y="19" width="1" height="1" fill="#740407"/>
<rect x="4" y="20" width="1" height="1" fill="#740407"/>
<rect x="2" y="20" width="1" height="1" fill="#740407"/>
<rect y="11" width="1" height="1" fill="#740407"/>
<rect x="1" y="12" width="1" height="1" fill="#740407"/>
<rect x="2" y="13" width="1" height="1" fill="#740407"/>
<rect y="13" width="1" height="1" fill="#740407"/>
<rect x="1" y="14" width="1" height="1" fill="#740407"/>
<rect x="2" y="15" width="1" height="1" fill="#740407"/>
<rect y="17" width="1" height="1" fill="#740407"/>
<rect y="15" width="1" height="1" fill="#740407"/>
<rect x="1" y="16" width="1" height="1" fill="#740407"/>
<rect x="2" y="17" width="1" height="1" fill="#740407"/>
<rect x="1" y="18" width="1" height="1" fill="#740407"/>
<rect y="19" width="1" height="1" fill="#740407"/>
<rect y="1" width="1" height="1" fill="#740407"/>
<rect x="1" y="2" width="1" height="1" fill="#740407"/>
<rect x="2" y="3" width="1" height="1" fill="#740407"/>
<rect y="3" width="1" height="1" fill="#740407"/>
<rect x="1" y="4" width="1" height="1" fill="#740407"/>
<rect x="2" y="5" width="1" height="1" fill="#740407"/>
<rect y="7" width="1" height="1" fill="#740407"/>
<rect y="5" width="1" height="1" fill="#740407"/>
<rect x="1" y="6" width="1" height="1" fill="#740407"/>
<rect x="2" y="7" width="1" height="1" fill="#740407"/>
<rect x="1" y="8" width="1" height="1" fill="#740407"/>
<rect y="9" width="1" height="1" fill="#740407"/>
<rect width="1" height="1" transform="matrix(-1 1.74846e-07 1.74846e-07 1 11 11)" fill="#740407"/>
<rect width="1" height="1" transform="matrix(-1 1.74846e-07 1.74846e-07 1 10 12)" fill="#740407"/>
<rect width="1" height="1" transform="matrix(-1 1.74846e-07 1.74846e-07 1 9 13)" fill="#740407"/>
<rect width="1" height="1" transform="matrix(-1 1.74846e-07 1.74846e-07 1 11 13)" fill="#740407"/>
<rect width="1" height="1" transform="matrix(-1 1.74846e-07 1.74846e-07 1 10 14)" fill="#740407"/>
<rect width="1" height="1" transform="matrix(-1 1.74846e-07 1.74846e-07 1 9 15)" fill="#740407"/>
<rect width="1" height="1" transform="matrix(-1 1.74846e-07 1.74846e-07 1 11 17)" fill="#740407"/>
<rect width="1" height="1" transform="matrix(-1 1.74846e-07 1.74846e-07 1 11 15)" fill="#740407"/>
<rect width="1" height="1" transform="matrix(-1 1.74846e-07 1.74846e-07 1 10 16)" fill="#740407"/>
<rect width="1" height="1" transform="matrix(-1 1.74846e-07 1.74846e-07 1 9 17)" fill="#740407"/>
<rect width="1" height="1" transform="matrix(-1 1.74846e-07 1.74846e-07 1 10 18)" fill="#740407"/>
<rect width="1" height="1" transform="matrix(-1 1.74846e-07 1.74846e-07 1 11 19)" fill="#740407"/>
<rect width="1" height="1" transform="matrix(-1 1.74846e-07 1.74846e-07 1 11 1)" fill="#740407"/>
<rect width="1" height="1" transform="matrix(-1 1.74846e-07 1.74846e-07 1 10 2)" fill="#740407"/>
<rect width="1" height="1" transform="matrix(-1 1.74846e-07 1.74846e-07 1 9 3)" fill="#740407"/>
<rect width="1" height="1" transform="matrix(-1 1.74846e-07 1.74846e-07 1 11 3)" fill="#740407"/>
<rect width="1" height="1" transform="matrix(-1 1.74846e-07 1.74846e-07 1 10 4)" fill="#740407"/>
<rect width="1" height="1" transform="matrix(-1 1.74846e-07 1.74846e-07 1 9 5)" fill="#740407"/>
<rect width="1" height="1" transform="matrix(-1 1.74846e-07 1.74846e-07 1 11 7)" fill="#740407"/>
<rect width="1" height="1" transform="matrix(-1 1.74846e-07 1.74846e-07 1 11 5)" fill="#740407"/>
<rect width="1" height="1" transform="matrix(-1 1.74846e-07 1.74846e-07 1 10 6)" fill="#740407"/>
<rect width="1" height="1" transform="matrix(-1 1.74846e-07 1.74846e-07 1 9 7)" fill="#740407"/>
<rect width="1" height="1" transform="matrix(-1 1.74846e-07 1.74846e-07 1 10 8)" fill="#740407"/>
<rect width="1" height="1" transform="matrix(-1 1.74846e-07 1.74846e-07 1 11 9)" fill="#740407"/>
<rect x="3" y="9" width="5" height="3" fill="#FE1016"/>
<rect x="2" y="10" width="1" height="1" fill="#FE1016"/>
<rect x="8" y="10" width="1" height="1" fill="#FE1016"/>
</svg>
