<svg width="11" height="21" viewBox="0 0 11 21" fill="none" xmlns="http://www.w3.org/2000/svg">
<path fill-rule="evenodd" clip-rule="evenodd" d="M1 0H10V1H9V2H8V3H3V2H2V1H1V0ZM1 1V2H2V3H3V8H2V9H1V10H0V1H1ZM9 9V8H8V3H9V2H10V1H11V10H10V9H9ZM9 12V13H8V18H3V13H2V12H1V11H0V20H1V21H10V20H11V11H10V12H9ZM9 19H10V20H9V19ZM9 19V18H8V19H9ZM2 19V20H1V19H2ZM2 19H3V18H2V19Z" fill="#FE1016"/>
<rect x="3" y="9" width="1" height="1" fill="#740407"/>
<rect x="2" y="10" width="1" height="1" fill="#740407"/>
<rect x="8" y="10" width="1" height="1" fill="#740407"/>
<rect x="3" y="11" width="1" height="1" fill="#740407"/>
<rect x="7" y="9" width="1" height="1" fill="#740407"/>
<rect x="6" y="10" width="1" height="1" fill="#740407"/>
<rect x="7" y="11" width="1" height="1" fill="#740407"/>
<rect x="5" y="9" width="1" height="1" fill="#740407"/>
<rect x="4" y="10" width="1" height="1" fill="#740407"/>
<rect x="5" y="11" width="1" height="1" fill="#740407"/>
</svg>
