<svg width="11" height="21" viewBox="0 0 11 21" fill="none" xmlns="http://www.w3.org/2000/svg">
<rect x="5" y="3" width="1" height="1" transform="rotate(-180 5 3)" fill="#740407"/>
<rect x="4" y="2" width="1" height="1" transform="rotate(-180 4 2)" fill="#740407"/>
<rect x="3" y="1" width="1" height="1" transform="rotate(-180 3 1)" fill="#740407"/>
<rect x="7" y="3" width="1" height="1" transform="rotate(-180 7 3)" fill="#740407"/>
<rect x="6" y="2" width="1" height="1" transform="rotate(-180 6 2)" fill="#740407"/>
<rect x="5" y="1" width="1" height="1" transform="rotate(-180 5 1)" fill="#740407"/>
<rect x="8" y="2" width="1" height="1" transform="rotate(-180 8 2)" fill="#740407"/>
<rect x="7" y="1" width="1" height="1" transform="rotate(-180 7 1)" fill="#740407"/>
<rect x="9" y="1" width="1" height="1" transform="rotate(-180 9 1)" fill="#740407"/>
<rect x="6" y="18" width="1" height="1" fill="#740407"/>
<rect x="7" y="19" width="1" height="1" fill="#740407"/>
<rect x="8" y="20" width="1" height="1" fill="#740407"/>
<rect x="4" y="18" width="1" height="1" fill="#740407"/>
<rect x="5" y="19" width="1" height="1" fill="#740407"/>
<rect x="6" y="20" width="1" height="1" fill="#740407"/>
<rect x="3" y="19" width="1" height="1" fill="#740407"/>
<rect x="4" y="20" width="1" height="1" fill="#740407"/>
<rect x="2" y="20" width="1" height="1" fill="#740407"/>
<rect y="11" width="1" height="1" fill="#740407"/>
<rect x="1" y="12" width="1" height="1" fill="#740407"/>
<rect x="2" y="13" width="1" height="1" fill="#740407"/>
<rect y="13" width="1" height="1" fill="#740407"/>
<rect x="1" y="14" width="1" height="1" fill="#740407"/>
<rect x="2" y="15" width="1" height="1" fill="#740407"/>
<rect y="17" width="1" height="1" fill="#740407"/>
<rect y="15" width="1" height="1" fill="#740407"/>
<rect x="1" y="16" width="1" height="1" fill="#740407"/>
<rect x="2" y="17" width="1" height="1" fill="#740407"/>
<rect x="1" y="18" width="1" height="1" fill="#740407"/>
<rect y="19" width="1" height="1" fill="#740407"/>
<rect x="8" y="13" width="3" height="5" fill="#FE1016"/>
<rect x="9" y="12" width="2" height="1" fill="#FE1016"/>
<rect x="10" y="11" width="1" height="1" fill="#FE1016"/>
<rect x="10" y="20" width="2" height="1" transform="rotate(-90 10 20)" fill="#FE1016"/>
<rect x="9" y="19" width="1" height="1" transform="rotate(-90 9 19)" fill="#FE1016"/>
<rect x="8" y="3" width="3" height="5" fill="#FE1016"/>
<rect x="9" y="2" width="2" height="1" fill="#FE1016"/>
<rect x="10" y="1" width="1" height="1" fill="#FE1016"/>
<rect x="10" y="10" width="2" height="1" transform="rotate(-90 10 10)" fill="#FE1016"/>
<rect x="9" y="9" width="1" height="1" transform="rotate(-90 9 9)" fill="#FE1016"/>
<rect x="3" y="8" width="3" height="5" transform="rotate(-180 3 8)" fill="#FE1016"/>
<rect x="2" y="9" width="2" height="1" transform="rotate(-180 2 9)" fill="#FE1016"/>
<rect x="1" y="10" width="1" height="1" transform="rotate(-180 1 10)" fill="#FE1016"/>
<rect x="1" y="1" width="2" height="1" transform="rotate(90 1 1)" fill="#FE1016"/>
<rect x="2" y="2" width="1" height="1" transform="rotate(90 2 2)" fill="#FE1016"/>
<rect x="3" y="9" width="5" height="3" fill="#FE1016"/>
<rect x="2" y="10" width="1" height="1" fill="#FE1016"/>
<rect x="8" y="10" width="1" height="1" fill="#FE1016"/>
</svg>
