<svg width="11" height="21" viewBox="0 0 11 21" fill="none" xmlns="http://www.w3.org/2000/svg">
<rect width="1" height="1" transform="matrix(-1 0 0 1 11 1)" fill="#740407"/>
<rect width="1" height="1" transform="matrix(-1 0 0 1 10 2)" fill="#740407"/>
<rect width="1" height="1" transform="matrix(-1 0 0 1 9 3)" fill="#740407"/>
<rect width="1" height="1" transform="matrix(-1 0 0 1 11 3)" fill="#740407"/>
<rect width="1" height="1" transform="matrix(-1 0 0 1 10 4)" fill="#740407"/>
<rect width="1" height="1" transform="matrix(-1 0 0 1 9 5)" fill="#740407"/>
<rect width="1" height="1" transform="matrix(-1 0 0 1 11 5)" fill="#740407"/>
<rect width="1" height="1" transform="matrix(-1 0 0 1 10 6)" fill="#740407"/>
<rect width="1" height="1" transform="matrix(-1 0 0 1 9 7)" fill="#740407"/>
<rect width="1" height="1" transform="matrix(-1 0 0 1 11 7)" fill="#740407"/>
<rect width="1" height="1" transform="matrix(-1 0 0 1 10 8)" fill="#740407"/>
<rect width="1" height="1" transform="matrix(-1 0 0 1 11 9)" fill="#740407"/>
<rect width="3" height="5" transform="matrix(1 -8.74228e-08 -8.74228e-08 -1 8 18)" fill="#FE1016"/>
<rect width="2" height="1" transform="matrix(1 -8.74228e-08 -8.74228e-08 -1 9 19)" fill="#FE1016"/>
<rect width="1" height="1" transform="matrix(1 -8.74228e-08 -8.74228e-08 -1 10 20)" fill="#FE1016"/>
<rect width="2" height="1" transform="matrix(4.37114e-08 1 1 -4.37114e-08 10 11)" fill="#FE1016"/>
<rect width="1" height="1" transform="matrix(4.37114e-08 1 1 -4.37114e-08 9 12)" fill="#FE1016"/>
<rect width="3" height="5" transform="matrix(1 -8.74228e-08 -8.74228e-08 -1 8 18)" fill="#FE1016"/>
<rect width="2" height="1" transform="matrix(1 -8.74228e-08 -8.74228e-08 -1 9 19)" fill="#FE1016"/>
<rect width="1" height="1" transform="matrix(1 -8.74228e-08 -8.74228e-08 -1 10 20)" fill="#FE1016"/>
<rect width="2" height="1" transform="matrix(4.37114e-08 1 1 -4.37114e-08 10 11)" fill="#FE1016"/>
<rect width="1" height="1" transform="matrix(4.37114e-08 1 1 -4.37114e-08 9 12)" fill="#FE1016"/>
<rect x="3" y="18" width="3" height="5" transform="rotate(-180 3 18)" fill="#FE1016"/>
<rect x="2" y="19" width="2" height="1" transform="rotate(-180 2 19)" fill="#FE1016"/>
<rect x="1" y="20" width="1" height="1" transform="rotate(-180 1 20)" fill="#FE1016"/>
<rect x="1" y="11" width="2" height="1" transform="rotate(90 1 11)" fill="#FE1016"/>
<rect x="2" y="12" width="1" height="1" transform="rotate(90 2 12)" fill="#FE1016"/>
<rect width="3" height="5" transform="matrix(-1 0 0 1 3 3)" fill="#FE1016"/>
<rect width="2" height="1" transform="matrix(-1 0 0 1 2 2)" fill="#FE1016"/>
<rect width="1" height="1" transform="matrix(-1 0 0 1 1 1)" fill="#FE1016"/>
<rect width="2" height="1" transform="matrix(4.37114e-08 -1 -1 -4.37114e-08 1 10)" fill="#FE1016"/>
<rect width="1" height="1" transform="matrix(4.37114e-08 -1 -1 -4.37114e-08 2 9)" fill="#FE1016"/>
<rect width="5" height="3" transform="matrix(-1 0 0 1 8 9)" fill="#FE1016"/>
<rect width="1" height="1" transform="matrix(-1 0 0 1 9 10)" fill="#FE1016"/>
<rect width="1" height="1" transform="matrix(-1 0 0 1 3 10)" fill="#FE1016"/>
<rect width="7" height="1" transform="matrix(-1 0 0 1 9 0)" fill="#FE1016"/>
<rect width="5" height="1" transform="matrix(-1 0 0 1 8 1)" fill="#FE1016"/>
<rect width="3" height="1" transform="matrix(-1 0 0 1 7 2)" fill="#FE1016"/>
<rect width="7" height="1" transform="matrix(1 -8.74228e-08 -8.74228e-08 -1 2 21)" fill="#FE1016"/>
<rect width="5" height="1" transform="matrix(1 -8.74228e-08 -8.74228e-08 -1 3 20)" fill="#FE1016"/>
<rect width="3" height="1" transform="matrix(1 -8.74228e-08 -8.74228e-08 -1 4 19)" fill="#FE1016"/>
</svg>
