<svg width="11" height="21" viewBox="0 0 11 21" fill="none" xmlns="http://www.w3.org/2000/svg">
<rect width="3" height="5" transform="matrix(1 -8.74228e-08 -8.74228e-08 -1 8 18)" fill="#FE1016"/>
<rect width="2" height="1" transform="matrix(1 -8.74228e-08 -8.74228e-08 -1 9 19)" fill="#FE1016"/>
<rect width="1" height="1" transform="matrix(1 -8.74228e-08 -8.74228e-08 -1 10 20)" fill="#FE1016"/>
<rect width="2" height="1" transform="matrix(4.37114e-08 1 1 -4.37114e-08 10 11)" fill="#FE1016"/>
<rect width="1" height="1" transform="matrix(4.37114e-08 1 1 -4.37114e-08 9 12)" fill="#FE1016"/>
<rect width="3" height="5" transform="matrix(1 -8.74228e-08 -8.74228e-08 -1 8 18)" fill="#FE1016"/>
<rect width="2" height="1" transform="matrix(1 -8.74228e-08 -8.74228e-08 -1 9 19)" fill="#FE1016"/>
<rect width="1" height="1" transform="matrix(1 -8.74228e-08 -8.74228e-08 -1 10 20)" fill="#FE1016"/>
<rect width="2" height="1" transform="matrix(4.37114e-08 1 1 -4.37114e-08 10 11)" fill="#FE1016"/>
<rect width="1" height="1" transform="matrix(4.37114e-08 1 1 -4.37114e-08 9 12)" fill="#FE1016"/>
<rect width="3" height="5" transform="matrix(-1 0 0 1 3 3)" fill="#FE1016"/>
<rect width="2" height="1" transform="matrix(-1 0 0 1 2 2)" fill="#FE1016"/>
<rect width="1" height="1" transform="matrix(-1 0 0 1 1 1)" fill="#FE1016"/>
<rect width="2" height="1" transform="matrix(4.37114e-08 -1 -1 -4.37114e-08 1 10)" fill="#FE1016"/>
<rect width="1" height="1" transform="matrix(4.37114e-08 -1 -1 -4.37114e-08 2 9)" fill="#FE1016"/>
<rect x="8" y="3" width="3" height="5" fill="#FE1016"/>
<rect x="9" y="2" width="2" height="1" fill="#FE1016"/>
<rect x="10" y="1" width="1" height="1" fill="#FE1016"/>
<rect x="10" y="10" width="2" height="1" transform="rotate(-90 10 10)" fill="#FE1016"/>
<rect x="9" y="9" width="1" height="1" transform="rotate(-90 9 9)" fill="#FE1016"/>
<rect width="5" height="3" transform="matrix(-1 0 0 1 8 9)" fill="#FE1016"/>
<rect width="1" height="1" transform="matrix(-1 0 0 1 9 10)" fill="#FE1016"/>
<rect width="1" height="1" transform="matrix(-1 0 0 1 3 10)" fill="#FE1016"/>
<rect width="7" height="1" transform="matrix(-1 0 0 1 9 0)" fill="#FE1016"/>
<rect width="5" height="1" transform="matrix(-1 0 0 1 8 1)" fill="#FE1016"/>
<rect width="3" height="1" transform="matrix(-1 0 0 1 7 2)" fill="#FE1016"/>
<rect width="7" height="1" transform="matrix(1 -8.74228e-08 -8.74228e-08 -1 2 21)" fill="#FE1016"/>
<rect width="5" height="1" transform="matrix(1 -8.74228e-08 -8.74228e-08 -1 3 20)" fill="#FE1016"/>
<rect width="3" height="1" transform="matrix(1 -8.74228e-08 -8.74228e-08 -1 4 19)" fill="#FE1016"/>
<rect y="11" width="1" height="1" fill="#740407"/>
<rect x="1" y="12" width="1" height="1" fill="#740407"/>
<rect x="2" y="13" width="1" height="1" fill="#740407"/>
<rect y="13" width="1" height="1" fill="#740407"/>
<rect x="1" y="14" width="1" height="1" fill="#740407"/>
<rect x="2" y="15" width="1" height="1" fill="#740407"/>
<rect y="17" width="1" height="1" fill="#740407"/>
<rect y="15" width="1" height="1" fill="#740407"/>
<rect x="1" y="16" width="1" height="1" fill="#740407"/>
<rect x="2" y="17" width="1" height="1" fill="#740407"/>
<rect x="1" y="18" width="1" height="1" fill="#740407"/>
<rect y="19" width="1" height="1" fill="#740407"/>
</svg>
