<svg width="11" height="21" viewBox="0 0 11 21" fill="none" xmlns="http://www.w3.org/2000/svg">
<rect y="1" width="1" height="1" fill="#740407"/>
<rect x="1" y="2" width="1" height="1" fill="#740407"/>
<rect x="2" y="3" width="1" height="1" fill="#740407"/>
<rect y="3" width="1" height="1" fill="#740407"/>
<rect x="1" y="4" width="1" height="1" fill="#740407"/>
<rect x="2" y="5" width="1" height="1" fill="#740407"/>
<rect y="5" width="1" height="1" fill="#740407"/>
<rect x="1" y="6" width="1" height="1" fill="#740407"/>
<rect x="2" y="7" width="1" height="1" fill="#740407"/>
<rect y="7" width="1" height="1" fill="#740407"/>
<rect x="1" y="8" width="1" height="1" fill="#740407"/>
<rect y="9" width="1" height="1" fill="#740407"/>
<rect x="11" y="20" width="1" height="1" transform="rotate(-180 11 20)" fill="#740407"/>
<rect x="10" y="19" width="1" height="1" transform="rotate(-180 10 19)" fill="#740407"/>
<rect x="9" y="18" width="1" height="1" transform="rotate(-180 9 18)" fill="#740407"/>
<rect x="11" y="18" width="1" height="1" transform="rotate(-180 11 18)" fill="#740407"/>
<rect x="10" y="17" width="1" height="1" transform="rotate(-180 10 17)" fill="#740407"/>
<rect x="9" y="16" width="1" height="1" transform="rotate(-180 9 16)" fill="#740407"/>
<rect x="11" y="14" width="1" height="1" transform="rotate(-180 11 14)" fill="#740407"/>
<rect x="11" y="16" width="1" height="1" transform="rotate(-180 11 16)" fill="#740407"/>
<rect x="10" y="15" width="1" height="1" transform="rotate(-180 10 15)" fill="#740407"/>
<rect x="9" y="14" width="1" height="1" transform="rotate(-180 9 14)" fill="#740407"/>
<rect x="10" y="13" width="1" height="1" transform="rotate(-180 10 13)" fill="#740407"/>
<rect x="11" y="12" width="1" height="1" transform="rotate(-180 11 12)" fill="#740407"/>
<rect x="3" y="18" width="3" height="5" transform="rotate(-180 3 18)" fill="#FE1016"/>
<rect x="2" y="19" width="2" height="1" transform="rotate(-180 2 19)" fill="#FE1016"/>
<rect x="1" y="20" width="1" height="1" transform="rotate(-180 1 20)" fill="#FE1016"/>
<rect x="1" y="11" width="2" height="1" transform="rotate(90 1 11)" fill="#FE1016"/>
<rect x="2" y="12" width="1" height="1" transform="rotate(90 2 12)" fill="#FE1016"/>
<rect x="3" y="18" width="3" height="5" transform="rotate(-180 3 18)" fill="#FE1016"/>
<rect x="2" y="19" width="2" height="1" transform="rotate(-180 2 19)" fill="#FE1016"/>
<rect x="1" y="20" width="1" height="1" transform="rotate(-180 1 20)" fill="#FE1016"/>
<rect x="1" y="11" width="2" height="1" transform="rotate(90 1 11)" fill="#FE1016"/>
<rect x="2" y="12" width="1" height="1" transform="rotate(90 2 12)" fill="#FE1016"/>
<rect x="8" y="3" width="3" height="5" fill="#FE1016"/>
<rect x="9" y="2" width="2" height="1" fill="#FE1016"/>
<rect x="10" y="1" width="1" height="1" fill="#FE1016"/>
<rect x="10" y="10" width="2" height="1" transform="rotate(-90 10 10)" fill="#FE1016"/>
<rect x="9" y="9" width="1" height="1" transform="rotate(-90 9 9)" fill="#FE1016"/>
<rect x="3" y="9" width="5" height="3" fill="#FE1016"/>
<rect x="2" y="10" width="1" height="1" fill="#FE1016"/>
<rect x="8" y="10" width="1" height="1" fill="#FE1016"/>
<rect x="2" width="7" height="1" fill="#FE1016"/>
<rect x="3" y="1" width="5" height="1" fill="#FE1016"/>
<rect x="4" y="2" width="3" height="1" fill="#FE1016"/>
<rect x="9" y="21" width="7" height="1" transform="rotate(-180 9 21)" fill="#FE1016"/>
<rect x="8" y="20" width="5" height="1" transform="rotate(-180 8 20)" fill="#FE1016"/>
<rect x="7" y="19" width="3" height="1" transform="rotate(-180 7 19)" fill="#FE1016"/>
</svg>
