<svg width="17" height="17" viewBox="0 0 17 17" fill="none" xmlns="http://www.w3.org/2000/svg">
<rect x="5.99988" y="1" width="5" height="1" fill="#FFFF3B"/>
<rect x="1" y="6" width="15" height="3" fill="#FFFF3B"/>
<rect x="1.99988" y="4" width="13" height="2" fill="#FFFF3B"/>
<rect x="2.99988" y="3" width="11" height="1" fill="#FFFF3B"/>
<rect x="3.99988" y="2" width="9" height="1" fill="#FFFF3B"/>
<rect x="11" y="16" width="5" height="1" transform="rotate(-180 11 16)" fill="#FFFF3B"/>
<rect x="16" y="11" width="15" height="2" transform="rotate(-180 16 11)" fill="#FFFF3B"/>
<rect x="15" y="13" width="13" height="2" transform="rotate(-180 15 13)" fill="#FFFF3B"/>
<rect x="14" y="14" width="11" height="1" transform="rotate(-180 14 14)" fill="#FFFF3B"/>
<rect x="13" y="15" width="9" height="1" transform="rotate(-180 13 15)" fill="#FFFF3B"/>
<rect y="6" width="1" height="5" fill="black"/>
<rect x="16" y="6" width="1" height="5" fill="black"/>
<rect x="1" y="4" width="1" height="2" fill="black"/>
<rect x="6" width="5" height="1" fill="black"/>
<rect x="4" y="1" width="2" height="1" fill="black"/>
<rect x="3" y="2" width="1" height="1" fill="black"/>
<rect x="2" y="3" width="1" height="1" fill="black"/>
<rect width="1" height="2" transform="matrix(-1 0 0 1 16 4)" fill="black"/>
<rect width="2" height="1" transform="matrix(-1 0 0 1 13 1)" fill="black"/>
<rect width="1" height="1" transform="matrix(-1 0 0 1 14 2)" fill="black"/>
<rect width="1" height="1" transform="matrix(-1 0 0 1 15 3)" fill="black"/>
<rect x="16" y="13" width="1" height="2" transform="rotate(-180 16 13)" fill="black"/>
<rect x="11" y="17" width="5" height="1" transform="rotate(-180 11 17)" fill="black"/>
<rect x="13" y="16" width="2" height="1" transform="rotate(-180 13 16)" fill="black"/>
<rect x="14" y="15" width="1" height="1" transform="rotate(-180 14 15)" fill="black"/>
<rect x="15" y="14" width="1" height="1" transform="rotate(-180 15 14)" fill="black"/>
<rect width="1" height="2" transform="matrix(1 8.74228e-08 8.74228e-08 -1 1 13)" fill="black"/>
<rect width="2" height="1" transform="matrix(1 8.74228e-08 8.74228e-08 -1 4 16)" fill="black"/>
<rect width="1" height="1" transform="matrix(1 8.74228e-08 8.74228e-08 -1 3 15)" fill="black"/>
<rect width="1" height="1" transform="matrix(1 8.74228e-08 8.74228e-08 -1 2 14)" fill="black"/>
<rect x="4" y="4" width="3" height="3" fill="#75751B"/>
<rect x="5" y="4" width="1" height="3" fill="black"/>
<rect x="4" y="5" width="3" height="1" fill="black"/>
<rect x="10" y="4" width="3" height="3" fill="#75751B"/>
<rect x="11" y="4" width="1" height="3" fill="black"/>
<rect x="10" y="5" width="3" height="1" fill="black"/>
<rect x="7" y="9" width="3" height="1" fill="black"/>
<rect x="7" y="10" width="1" height="1" fill="black"/>
<rect x="9" y="10" width="1" height="1" fill="black"/>
<rect x="10" y="14" width="3" height="1" transform="rotate(-180 10 14)" fill="black"/>
<rect x="10" y="13" width="1" height="1" transform="rotate(-180 10 13)" fill="black"/>
<rect x="8" y="13" width="1" height="1" transform="rotate(-180 8 13)" fill="black"/>
<rect x="6" y="11" width="1" height="1" fill="black"/>
<rect x="10" y="11" width="1" height="1" fill="black"/>
<rect x="6" y="10" width="1" height="1" fill="#75751B"/>
<rect x="10" y="12" width="1" height="1" fill="#75751B"/>
<rect x="6" y="12" width="1" height="1" fill="#75751B"/>
<rect x="10" y="10" width="1" height="1" fill="#75751B"/>
</svg>
