<svg width="10" height="10" viewBox="0 0 10 10" fill="none" xmlns="http://www.w3.org/2000/svg">
<rect width="2" height="1" fill="#FE1016"/>
<rect x="4" y="3" width="1" height="3" fill="#FE1016"/>
<rect width="1" height="1" transform="matrix(-1 0 0 1 1 8)" fill="#FE1016"/>
<rect x="1" y="7" width="1" height="2" fill="#FE1016"/>
<rect x="2" y="6" width="1" height="2" fill="#FE1016"/>
<rect x="3" y="5" width="1" height="2" fill="#FE1016"/>
<rect x="3" y="3" width="1" height="1" fill="#FE1016"/>
<rect x="2" y="2" width="2" height="1" fill="#FE1016"/>
<rect x="1" y="1" width="2" height="1" fill="#FE1016"/>
<rect x="10" y="9" width="2" height="1" transform="rotate(-180 10 9)" fill="#FE1016"/>
<rect x="6" y="6" width="1" height="3" transform="rotate(-180 6 6)" fill="#FE1016"/>
<rect width="1" height="1" transform="matrix(1 8.74228e-08 8.74228e-08 -1 9 1)" fill="#FE1016"/>
<rect x="9" y="2" width="1" height="2" transform="rotate(-180 9 2)" fill="#FE1016"/>
<rect x="8" y="3" width="1" height="2" transform="rotate(-180 8 3)" fill="#FE1016"/>
<rect x="7" y="4" width="1" height="2" transform="rotate(-180 7 4)" fill="#FE1016"/>
<rect x="7" y="6" width="1" height="1" transform="rotate(-180 7 6)" fill="#FE1016"/>
<rect x="8" y="7" width="2" height="1" transform="rotate(-180 8 7)" fill="#FE1016"/>
<rect x="9" y="8" width="2" height="1" transform="rotate(-180 9 8)" fill="#FE1016"/>
<rect y="9" width="2" height="1" fill="#740407"/>
<rect x="2" y="8" width="1" height="1" fill="#740407"/>
<rect y="1" width="1" height="1" fill="#740407"/>
<rect x="1" y="2" width="1" height="1" fill="#740407"/>
<rect x="2" y="3" width="1" height="1" fill="#740407"/>
<rect x="3" y="4" width="1" height="1" fill="#740407"/>
<rect x="4" y="6" width="1" height="1" fill="#740407"/>
<rect x="3" y="7" width="1" height="1" fill="#740407"/>
<rect width="2" height="1" transform="matrix(-1 8.74228e-08 8.74228e-08 1 10 9)" fill="#740407"/>
<rect width="1" height="1" transform="matrix(-1 8.74228e-08 8.74228e-08 1 8 8)" fill="#740407"/>
<rect width="1" height="1" transform="matrix(-1 8.74228e-08 8.74228e-08 1 10 1)" fill="#740407"/>
<rect width="1" height="1" transform="matrix(-1 8.74228e-08 8.74228e-08 1 9 2)" fill="#740407"/>
<rect width="1" height="1" transform="matrix(-1 8.74228e-08 8.74228e-08 1 8 3)" fill="#740407"/>
<rect width="1" height="1" transform="matrix(-1 8.74228e-08 8.74228e-08 1 7 4)" fill="#740407"/>
<rect width="1" height="1" transform="matrix(-1 8.74228e-08 8.74228e-08 1 6 6)" fill="#740407"/>
<rect width="1" height="1" transform="matrix(-1 8.74228e-08 8.74228e-08 1 7 7)" fill="#740407"/>
</svg>
